<?xml version="1.0" encoding="UTF-8" standalone="no"?>
<!-- Created with Inkscape (http://www.inkscape.org/) -->

<svg
   width="77.664413mm"
   height="53.743481mm"
   viewBox="0 0 77.664412 53.743482"
   version="1.1"
   id="svg3758"
   inkscape:version="1.1.2 (b8e25be833, 2022-02-05)"
   sodipodi:docname="qbbeta3.1.svg"
   inkscape:export-filename="C:\Users\kk7800\Documents\qbbeta2.png"
   inkscape:export-xdpi="96"
   inkscape:export-ydpi="96"
   xmlns:inkscape="http://www.inkscape.org/namespaces/inkscape"
   xmlns:sodipodi="http://sodipodi.sourceforge.net/DTD/sodipodi-0.dtd"
   xmlns="http://www.w3.org/2000/svg"
   xmlns:svg="http://www.w3.org/2000/svg">
  <sodipodi:namedview
     id="namedview3760"
     pagecolor="#ffffff"
     bordercolor="#666666"
     borderopacity="1.0"
     inkscape:pageshadow="2"
     inkscape:pageopacity="0.0"
     inkscape:pagecheckerboard="0"
     inkscape:document-units="mm"
     showgrid="false"
     showguides="false"
     inkscape:zoom="2.8284271"
     inkscape:cx="87.858018"
     inkscape:cy="144.24978"
     inkscape:window-width="1366"
     inkscape:window-height="705"
     inkscape:window-x="-8"
     inkscape:window-y="-8"
     inkscape:window-maximized="1"
     inkscape:current-layer="layer2"
     fit-margin-top="0"
     fit-margin-left="0"
     fit-margin-right="0"
     fit-margin-bottom="0">
    <inkscape:grid
       type="xygrid"
       id="grid4012"
       originx="-49.428488"
       originy="-97.035266" />
  </sodipodi:namedview>
  <defs
     id="defs3755">
    <inkscape:path-effect
       effect="bspline"
       id="path-effect2045"
       is_visible="true"
       lpeversion="1"
       weight="33.333333"
       steps="2"
       helper_size="0"
       apply_no_weight="true"
       apply_with_weight="true"
       only_selected="false" />
    <inkscape:path-effect
       effect="fill_between_many"
       method="originald"
       linkedpaths="#path16526,0,1|#path17479,0,1"
       id="path-effect1853"
       is_visible="true"
       lpeversion="0"
       join="true"
       close="true"
       autoreverse="true"
       applied="false" />
    <inkscape:path-effect
       effect="bspline"
       id="path-effect1303"
       is_visible="true"
       lpeversion="1"
       weight="33.333333"
       steps="2"
       helper_size="0"
       apply_no_weight="true"
       apply_with_weight="true"
       only_selected="false" />
    <inkscape:path-effect
       effect="bspline"
       id="path-effect3766"
       is_visible="true"
       lpeversion="1"
       weight="33.333333"
       steps="2"
       helper_size="0"
       apply_no_weight="true"
       apply_with_weight="true"
       only_selected="false" />
    <inkscape:path-effect
       effect="bspline"
       id="path-effect2406"
       is_visible="true"
       lpeversion="1"
       weight="33.333333"
       steps="2"
       helper_size="0"
       apply_no_weight="true"
       apply_with_weight="true"
       only_selected="false" />
    <inkscape:path-effect
       effect="bspline"
       id="path-effect113"
       is_visible="true"
       lpeversion="1"
       weight="33.333333"
       steps="2"
       helper_size="0"
       apply_no_weight="true"
       apply_with_weight="true"
       only_selected="false" />
    <inkscape:path-effect
       effect="bspline"
       id="path-effect76"
       is_visible="true"
       lpeversion="1"
       weight="33.333333"
       steps="2"
       helper_size="0"
       apply_no_weight="true"
       apply_with_weight="true"
       only_selected="false" />
    <inkscape:path-effect
       effect="bspline"
       id="path-effect31982"
       is_visible="true"
       lpeversion="1"
       weight="33.333333"
       steps="2"
       helper_size="0"
       apply_no_weight="true"
       apply_with_weight="true"
       only_selected="false" />
    <inkscape:path-effect
       effect="bspline"
       id="path-effect19555"
       is_visible="true"
       lpeversion="1"
       weight="33.333333"
       steps="2"
       helper_size="0"
       apply_no_weight="true"
       apply_with_weight="true"
       only_selected="false" />
    <inkscape:path-effect
       effect="bspline"
       id="path-effect17481"
       is_visible="true"
       lpeversion="1"
       weight="33.333333"
       steps="2"
       helper_size="0"
       apply_no_weight="true"
       apply_with_weight="true"
       only_selected="false" />
    <inkscape:path-effect
       effect="bspline"
       id="path-effect16528"
       is_visible="true"
       lpeversion="1"
       weight="33.333333"
       steps="2"
       helper_size="0"
       apply_no_weight="true"
       apply_with_weight="true"
       only_selected="false" />
    <inkscape:path-effect
       effect="bspline"
       id="path-effect15674"
       is_visible="true"
       lpeversion="1"
       weight="33.333333"
       steps="2"
       helper_size="0"
       apply_no_weight="true"
       apply_with_weight="true"
       only_selected="false" />
    <inkscape:path-effect
       effect="bspline"
       id="path-effect12545"
       is_visible="true"
       lpeversion="1"
       weight="33.333333"
       steps="2"
       helper_size="0"
       apply_no_weight="true"
       apply_with_weight="true"
       only_selected="false" />
    <inkscape:path-effect
       effect="bspline"
       id="path-effect9764"
       is_visible="true"
       lpeversion="1"
       weight="33.333333"
       steps="2"
       helper_size="0"
       apply_no_weight="true"
       apply_with_weight="true"
       only_selected="false" />
    <inkscape:path-effect
       effect="bspline"
       id="path-effect9760"
       is_visible="true"
       lpeversion="1"
       weight="33.333333"
       steps="2"
       helper_size="0"
       apply_no_weight="true"
       apply_with_weight="true"
       only_selected="false" />
    <inkscape:path-effect
       effect="bspline"
       id="path-effect5330"
       is_visible="true"
       lpeversion="1"
       weight="33.333333"
       steps="2"
       helper_size="0"
       apply_no_weight="true"
       apply_with_weight="true"
       only_selected="false" />
    <inkscape:path-effect
       effect="bspline"
       id="path-effect4544"
       is_visible="true"
       lpeversion="1"
       weight="33.333333"
       steps="2"
       helper_size="0"
       apply_no_weight="true"
       apply_with_weight="true"
       only_selected="false" />
    <inkscape:path-effect
       effect="bspline"
       id="path-effect1064"
       is_visible="true"
       lpeversion="1"
       weight="33.333333"
       steps="2"
       helper_size="0"
       apply_no_weight="true"
       apply_with_weight="true"
       only_selected="false" />
    <inkscape:path-effect
       effect="bspline"
       id="path-effect47900"
       is_visible="true"
       lpeversion="1"
       weight="33.333333"
       steps="2"
       helper_size="0"
       apply_no_weight="true"
       apply_with_weight="true"
       only_selected="false" />
    <inkscape:path-effect
       effect="bspline"
       id="path-effect42650"
       is_visible="true"
       lpeversion="1"
       weight="33.333333"
       steps="2"
       helper_size="0"
       apply_no_weight="true"
       apply_with_weight="true"
       only_selected="false" />
    <inkscape:path-effect
       effect="bspline"
       id="path-effect11375"
       is_visible="true"
       lpeversion="1"
       weight="33.333333"
       steps="2"
       helper_size="0"
       apply_no_weight="true"
       apply_with_weight="true"
       only_selected="false" />
    <inkscape:path-effect
       effect="bspline"
       id="path-effect6316"
       is_visible="true"
       lpeversion="1"
       weight="33.333333"
       steps="2"
       helper_size="0"
       apply_no_weight="true"
       apply_with_weight="true"
       only_selected="false" />
    <inkscape:path-effect
       effect="bspline"
       id="path-effect6020"
       is_visible="true"
       lpeversion="1"
       weight="33.333333"
       steps="2"
       helper_size="0"
       apply_no_weight="true"
       apply_with_weight="true"
       only_selected="false" />
    <inkscape:path-effect
       effect="bspline"
       id="path-effect6016"
       is_visible="true"
       lpeversion="1"
       weight="33.333333"
       steps="2"
       helper_size="0"
       apply_no_weight="true"
       apply_with_weight="true"
       only_selected="false" />
    <inkscape:path-effect
       effect="bspline"
       id="path-effect5899"
       is_visible="true"
       lpeversion="1"
       weight="33.333333"
       steps="2"
       helper_size="0"
       apply_no_weight="true"
       apply_with_weight="true"
       only_selected="false" />
    <inkscape:path-effect
       effect="bspline"
       id="path-effect5231"
       is_visible="true"
       lpeversion="1"
       weight="33.333333"
       steps="2"
       helper_size="0"
       apply_no_weight="true"
       apply_with_weight="true"
       only_selected="false" />
    <inkscape:path-effect
       effect="bspline"
       id="path-effect5034"
       is_visible="true"
       lpeversion="1"
       weight="33.333333"
       steps="2"
       helper_size="0"
       apply_no_weight="true"
       apply_with_weight="true"
       only_selected="false" />
    <inkscape:path-effect
       effect="fill_between_many"
       method="originald"
       linkedpaths="#path16526,0,1|#path17479,0,1"
       id="path-effect1149"
       is_visible="true"
       lpeversion="0"
       join="true"
       close="true"
       autoreverse="true"
       applied="false" />
    <inkscape:path-effect
       effect="fill_between_many"
       method="originald"
       linkedpaths="#path16526,0,1|#path17479,0,1"
       id="path-effect1267"
       is_visible="true"
       lpeversion="0"
       join="true"
       close="true"
       autoreverse="true"
       applied="false" />
    <inkscape:path-effect
       effect="fill_between_many"
       method="originald"
       linkedpaths="#path16526,0,1|#path17479,0,1"
       id="path-effect1689"
       is_visible="true"
       lpeversion="0"
       join="true"
       close="true"
       autoreverse="true"
       applied="false" />
    <inkscape:path-effect
       effect="fill_between_many"
       method="originald"
       linkedpaths="#path16526,0,1|#path17479,0,1"
       id="path-effect1845"
       is_visible="true"
       lpeversion="0"
       join="true"
       close="true"
       autoreverse="true"
       applied="false" />
  </defs>
  <g
     inkscape:groupmode="layer"
     id="layer4"
     inkscape:label="Layer 4"
     style="display:inline"
     transform="translate(-49.428488,-97.035262)">
    <path
       style="display:inline;fill:#0096ff;fill-opacity:1;stroke:#000000;stroke-width:0.25;stroke-miterlimit:4;stroke-dasharray:none"
       id="path955"
       sodipodi:type="arc"
       sodipodi:cx="81.94529"
       sodipodi:cy="122.83469"
       sodipodi:rx="25.014"
       sodipodi:ry="25.675409"
       sodipodi:start="1.02907"
       sodipodi:end="0.72746122"
       sodipodi:arc-type="arc"
       d="m 94.842906,144.83389 a 25.014,25.675409 0 0 1 -33.297622,-7.14095 25.014,25.675409 0 0 1 4.428893,-34.61889 25.014,25.675409 0 0 1 33.964886,1.92522 25.014,25.675409 0 0 1 0.688307,34.90894"
       sodipodi:open="true"
       inkscape:export-filename="C:\Users\kk7800\Documents\path5897.png"
       inkscape:export-xdpi="96"
       inkscape:export-ydpi="96" />
  </g>
  <g
     inkscape:groupmode="layer"
     id="layer2"
     inkscape:label="Layer 2"
     style="display:inline"
     transform="translate(-49.428488,-97.035262)">
    <path
       d="m 106.86745,122.57396 c -0.008,-0.74816 -0.0442,-1.49106 -0.11285,-2.22239 -0.2308,-2.43815 -0.79907,-4.77526 -1.65047,-6.9661 -0.0637,-0.16312 -0.12208,-0.32832 -0.18978,-0.4893 -1.1345,-2.74963 -2.7275,-5.253 -4.67749,-7.41334 -0.12823,-0.14099 -0.258505,-0.2799 -0.38878,-0.4167 -0.368253,-0.39249 -0.746758,-0.77553 -1.138605,-1.14277 -4.433385,-4.140729 -10.321319,-6.668305 -16.775473,-6.668305 -6.508522,0 -12.438515,2.572838 -16.884207,6.776705 -1.036035,0.97965 -1.987945,2.04878 -2.851645,3.19365 -3.257855,4.32278 -5.202719,9.73781 -5.202719,15.61269 0,14.10791 11.188095,25.58407 24.939595,25.58407 9.673029,0 18.071024,-5.68231 22.204884,-13.96165 0.88422,-1.76993 1.5725,-3.65668 2.03615,-5.63391 0.11797,-0.50194 0.21952,-1.00598 0.30774,-1.51632 0.25132,-1.4532 0.38877,-2.94744 0.38877,-4.47219 0.002,-0.0883 -0.004,-0.17574 -0.006,-0.26414 z m -4.69395,-10.22499 0.14464,-0.16626 c 0.18977,0.37777 0.36723,0.76186 0.53649,1.15119 l -0.23594,-0.0103 -0.44519,0.0631 z m -3.603527,-4.46377 0.004,-1.14278 c 0.391852,0.42617 0.769337,0.86497 1.13041,1.31955 l -0.449294,0.68609 -1.57045,-0.0147 -0.09848,-0.33567 z m -30.083847,-2.84011 v -0.0433 h 0.49955 l 0.04307,-0.17573 h 0.81754 v 0.36619 l -0.234906,0.32198 h -1.126291 z m 0.798054,1.14172 c 0,0 0.499553,-0.0873 0.542629,-0.0873 0.04307,0 0,0.51141 0,0.51141 l -1.126294,0.0726 -0.214389,-0.26306 z m 34.47824,10.15555 h -1.82484 l -1.11193,-0.84919 -1.170421,0.11681 v 0.73238 h -0.3703 l -0.400051,-0.29252 -2.02692,-0.52719 v -1.34693 l -2.568537,0.2052 -0.795992,0.43879 h -1.019625 l -0.499548,-0.0514 -1.2381,0.70501 v 1.32693 l -2.530591,1.87307 0.210284,0.79971 h 0.512888 l -0.134374,0.76187 -0.361069,0.13574 -0.01951,1.99091 2.186946,2.55494 h 0.95191 l 0.05742,-0.15573 h 1.710977 l 0.493398,-0.46828 h 0.970379 l 0.532378,0.5472 1.446342,0.15364 -0.19182,1.97301 1.605335,2.90745 -0.845235,1.65735 0.05742,0.78078 0.665723,0.68083 v 1.87727 l 0.873954,1.20591 v 1.55947 h 0.754971 c -4.20156,5.29193 -10.596223,8.68131 -17.750983,8.68131 -12.619049,0.002 -22.885998,-10.53226 -22.885998,-23.47846 0,-3.25892 0.65239,-6.36522 1.826898,-9.18852 v -0.73238 l 0.818566,-1.01967 c 0.284139,-0.55033 0.588796,-1.08698 0.913965,-1.60998 l 0.03693,0.42618 -0.949862,1.1838 c -0.294394,0.57036 -0.569306,1.15332 -0.818566,1.75205 v 1.33641 l 0.95089,0.46932 v 1.85727 l 0.91191,1.59631 0.741634,0.11679 0.09541,-0.54718 -0.874986,-1.3848 -0.171302,-1.34586 h 0.512896 l 0.216441,1.38481 1.264774,1.89303 -0.326196,0.61136 0.804207,1.26171 1.997174,0.5072 v -0.33147 l 0.799077,0.1168 -0.0759,0.58507 0.62777,0.11784 0.969356,0.27149 1.369408,1.60053 1.748941,0.13574 0.171302,1.46372 -1.197073,0.85866 -0.05642,1.30694 -0.171298,0.79974 1.731502,2.22346 0.132327,0.76185 c 0,0 0.627769,0.17468 0.704702,0.17468 0.07592,0 1.407361,1.03439 1.407361,1.03439 v 4.01866 l 0.474929,0.13679 -0.323113,1.8541 0.799076,1.09334 -0.147713,1.83728 1.055522,1.90359 1.355038,1.2143 1.362229,0.0253 0.133353,-0.44934 -1.001153,-0.86497 0.05742,-0.42933 0.17951,-0.52616 0.03794,-0.53664 -0.677005,-0.021 -0.341581,-0.43985 0.562123,-0.55455 0.0759,-0.41881 -0.627769,-0.18415 0.03691,-0.38933 0.894476,-0.13891 1.360176,-0.67031 0.456464,-0.85865 1.42685,-1.87306 -0.324146,-1.46477 0.438009,-0.77974 1.311959,0.0412 0.883194,-0.71764 0.285162,-2.82643 0.979614,-1.27641 0.171301,-0.81974 -0.893446,-0.29357 -0.589819,-0.99231 -2.015639,-0.021 -1.598157,-0.62507 -0.0759,-1.16907 -0.533405,-0.95652 -1.445312,-0.022 -0.834978,-1.34478 -0.741634,-0.37148 -0.03794,0.41039 -1.349921,0.082 -0.494418,-0.7061 -1.408391,-0.29356 -1.160148,1.3753 -1.825875,-0.31776 -0.132321,-2.11088 -1.332482,-0.23362 0.534435,-1.03544 -0.152846,-0.59455 -1.75099,1.20067 -1.101678,-0.13784 -0.392872,-0.88287 0.240031,-0.91023 0.607258,-1.14803 1.398128,-0.72607 2.699832,-9.8e-4 -0.0072,0.84496 0.970379,0.46302 -0.07694,-1.44374 0.699582,-0.72187 1.411465,-0.95124 0.09641,-0.66925 1.407359,-1.50267 1.496611,-0.85023 -0.132331,-0.11155 1.013458,-0.97861 0.371331,0.10107 0.170284,0.21886 0.38466,-0.43774 0.09437,-0.0432 -0.421595,-0.0611 -0.427746,-0.14627 v -0.42092 l 0.226698,-0.19045 h 0.499548 l 0.228751,0.10311 0.19797,0.4104 0.242081,-0.0379 v -0.0359 l 0.06975,0.0242 0.701624,-0.11048 0.09951,-0.35148 0.400052,0.10312 V 110.17 l -0.371331,0.26204 h 0.0013 l 0.05435,0.41774 1.270931,0.40197 c 0,0 0.0013,0.005 0.003,0.0158 l 0.292344,-0.0253 0.01949,-0.56507 -1.00731,-0.47038 -0.05742,-0.27148 0.836001,-0.29254 0.03691,-0.82077 -0.873959,-0.54615 -0.05742,-1.38375 -1.198105,0.60402 h -0.436914 l 0.114888,-1.05333 -1.630978,-0.3946 -0.674958,0.52297 v 1.59526 l -1.213484,0.39461 -0.486216,1.03964 -0.527251,0.0873 v -1.33004 l -1.140662,-0.16204 -0.570326,-0.38093 -0.229774,-0.86183 2.040266,-1.22484 0.998074,-0.31148 0.100527,0.68819 0.555968,-0.0295 0.04308,-0.34622 0.581618,-0.0853 0.01028,-0.12101 -0.250296,-0.10629 -0.05742,-0.36619 0.714963,-0.0621 0.431849,-0.46089 0.02358,-0.0336 0.0053,0.002 0.131299,-0.13891 1.502756,-0.19465 0.664698,0.57876 -1.742789,0.95229 2.217719,0.53669 0.287218,-0.76082 h 0.969353 l 0.342611,-0.66291 -0.685215,-0.17574 v -0.83861 l -2.148993,-0.97651 -1.483266,0.17574 -0.837032,0.44931 0.05742,1.09226 -0.874987,-0.13679 -0.134378,-0.60401 0.838058,-0.78079 -1.521224,-0.0779 -0.436977,0.13577 -0.189763,0.52613 0.570325,0.099 -0.113864,0.58505 -0.96935,0.0589 -0.151816,0.38936 -1.406336,0.0401 c 0,0 -0.03897,-0.81866 -0.09541,-0.81866 -0.05642,0 1.10271,-0.0199 1.10271,-0.0199 l 0.838062,-0.83972 -0.457504,-0.23467 -0.608281,0.60611 -1.009358,-0.0589 -0.60828,-0.85866 h -1.29382 l -1.34992,1.03439 h 1.237086 l 0.112834,0.37145 -0.32107,0.30622 1.369411,0.0389 0.209256,0.5072 -1.541739,-0.0589 -0.0749,-0.39041 -0.969352,-0.21465 -0.51391,-0.29254 -1.153999,0.0103 c 3.777953,-2.82394 8.423679,-4.494957 13.444837,-4.494957 5.787405,0 11.075253,2.219257 15.109614,5.865427 l -0.271824,0.49878 -1.055518,0.42408 -0.445191,0.49559 0.102579,0.57773 0.54468,0.0779 0.328253,0.84183 0.939607,-0.38829 0.154887,1.12594 h -0.283104 l -0.77137,-0.11682 -0.855497,0.14732 -0.827804,1.19962 -1.183742,0.19046 -0.171297,1.03965 0.499542,0.12102 -0.144625,0.66818 -1.175537,-0.242 -1.078085,0.242 -0.228748,0.61559 0.18669,1.29221 0.632899,0.3041 1.061676,-0.006 0.717014,-0.0664 0.21849,-0.58505 1.120138,-1.4932 0.737533,0.15468 0.726255,-0.67345 0.135392,0.52614 1.786898,1.23644 -0.218485,0.30094 -0.805232,-0.0442 0.309782,0.45038 0.49545,0.11154 0.580582,-0.24833 -0.01224,-0.71766 0.257461,-0.13258 -0.207204,-0.22521 -1.191943,-0.68186 -0.313892,-0.90602 H 98.329 l 0.316967,0.322 0.853446,0.75449 0.03594,0.91233 0.884217,0.96598 0.32926,-1.32376 0.6124,-0.34304 0.11487,1.08279 0.59803,0.67346 1.19297,-0.021 c 0.23081,0.60927 0.438,1.22906 0.61956,1.86148 z m -33.164224,-7.46381 0.599043,-0.29253 0.541614,0.13259 -0.186689,0.74605 -0.584689,0.19047 z m 3.178865,1.75626 v 0.48298 H 72.40868 l -0.512884,-0.14625 0.128219,-0.33673 0.657519,-0.27886 h 0.898577 v 0.27886 z m 0.62982,0.67344 v 0.46828 l -0.342605,0.22623 -0.426722,0.081 c 0,0 0,-0.70187 0,-0.77553 z m -0.385685,-0.19046 v -0.55665 l 0.470826,0.43985 z m 0.214382,1.12594 v 0.45564 l -0.327222,0.33674 h -0.72727 l 0.113864,-0.5114 0.343632,-0.0305 0.07077,-0.17572 z m -1.811511,-0.93548 h 0.755991 l -0.969351,1.39008 -0.400052,-0.21993 0.08616,-0.58508 z m 3.095786,0.77554 v 0.45459 h -0.727279 l -0.198996,-0.29465 v -0.423 h 0.05742 z m -0.671888,-0.62505 0.207208,-0.22309 0.349789,0.22309 -0.280035,0.23677 z m 29.285785,6.0685 0.0717,-0.0862 c 0.0297,0.13258 0.0616,0.26517 0.0902,0.39986 z"
       id="path70353"
       style="display:inline;fill:#349933;fill-opacity:1;stroke:#000000;stroke-width:0.25;stroke-miterlimit:4;stroke-dasharray:none;stroke-opacity:1"
       inkscape:export-filename="C:\Users\Jack\Desktop\qbSat Logo1.png"
       inkscape:export-xdpi="96"
       inkscape:export-ydpi="96" />
    <path
       style="display:inline;fill:#34e7ff;fill-opacity:1;stroke:none;stroke-width:0.264583px;stroke-linecap:butt;stroke-linejoin:miter;stroke-opacity:1"
       d="m 105.52382,136.15498 -1.2098,2.41992 -1.62057,3.40652 -1.19063,2.41432 -0.0331,0.4795 2.2655,-0.0165 2.34429,-3.41193 h 2.27412 l 2.29383,3.445 2.08359,-0.0165 v -0.33073 l -1.33945,-2.94349 -2.29857,-4.91133 -1.47175,-2.64583 -0.42994,-0.46303 -0.77722,1.12448 -0.4594,0.66355 m 1.26284,1.55518 0.48641,0.57594 0.62838,1.04179 v 0.51263 l -0.13229,0.13229 -1.98437,-0.0248 -0.0761,-0.23657 0.0738,-0.56119 0.62236,-0.9551 m -0.15201,0.72497 -0.28473,-1.43213"
       id="path2193"
       sodipodi:nodetypes="cccccccccccccccccccccccccccc" />
    <path
       style="display:inline;fill:none;stroke:#ffffff;stroke-width:0.75;stroke-miterlimit:4;stroke-dasharray:none;stroke-opacity:1"
       id="path1569-8"
       transform="rotate(-20)"
       sodipodi:type="arc"
       sodipodi:cx="38.166523"
       sodipodi:cy="153.19574"
       sodipodi:rx="40.582397"
       sodipodi:ry="14.554218"
       sodipodi:start="5.2790742"
       sodipodi:end="0.92547726"
       sodipodi:arc-type="arc"
       sodipodi:open="true"
       d="m 59.952711,140.91656 a 40.582397,14.554218 0 0 1 18.764847,11.7071 40.582397,14.554218 0 0 1 -16.142615,12.19956"
       inkscape:export-filename="C:\Users\kk7800\Documents\path5897.png"
       inkscape:export-xdpi="96"
       inkscape:export-ydpi="96" />
    <path
       style="display:inline;fill:none;stroke:#ffffff;stroke-width:0.75;stroke-miterlimit:4;stroke-dasharray:none;stroke-opacity:1"
       id="path1569-8-2"
       transform="rotate(-20)"
       sodipodi:type="arc"
       sodipodi:cx="38.166523"
       sodipodi:cy="153.19574"
       sodipodi:rx="40.582397"
       sodipodi:ry="14.554218"
       sodipodi:start="1.0459376"
       sodipodi:end="1.1181282"
       sodipodi:arc-type="arc"
       d="m 58.501987,165.79088 a 40.582397,14.554218 0 0 1 -2.586083,0.49323"
       sodipodi:open="true"
       inkscape:export-filename="C:\Users\kk7800\Documents\path5897.png"
       inkscape:export-xdpi="96"
       inkscape:export-ydpi="96" />
    <path
       style="display:inline;fill:none;stroke:#ffffff;stroke-width:0.75;stroke-miterlimit:4;stroke-dasharray:none;stroke-opacity:1"
       id="path1569-8-2-2"
       transform="rotate(-20)"
       sodipodi:type="arc"
       sodipodi:cx="38.166523"
       sodipodi:cy="153.19574"
       sodipodi:rx="40.582397"
       sodipodi:ry="14.554218"
       sodipodi:start="1.161696"
       sodipodi:end="1.2170894"
       sodipodi:arc-type="arc"
       sodipodi:open="true"
       d="m 54.309554,166.54893 a 40.582397,14.554218 0 0 1 -2.086196,0.30005"
       inkscape:export-filename="C:\Users\kk7800\Documents\path5897.png"
       inkscape:export-xdpi="96"
       inkscape:export-ydpi="96" />
    <path
       style="display:inline;fill:none;stroke:#ffffff;stroke-width:0.75;stroke-miterlimit:4;stroke-dasharray:none;stroke-opacity:1"
       id="path1569-8-2-2-8"
       transform="rotate(-20)"
       sodipodi:type="arc"
       sodipodi:cx="38.166523"
       sodipodi:cy="153.19574"
       sodipodi:rx="40.582397"
       sodipodi:ry="14.554218"
       sodipodi:start="1.2943613"
       sodipodi:end="1.3589778"
       sodipodi:arc-type="arc"
       sodipodi:open="true"
       d="m 49.242586,167.1974 a 40.582397,14.554218 0 0 1 -2.544096,0.22727"
       inkscape:export-filename="C:\Users\kk7800\Documents\path5897.png"
       inkscape:export-xdpi="96"
       inkscape:export-ydpi="96" />
    <path
       style="display:inline;fill:none;stroke:#ffffff;stroke-width:0.75;stroke-miterlimit:4;stroke-dasharray:none;stroke-opacity:1"
       id="path1569-8-2-2-8-7"
       transform="rotate(-20)"
       sodipodi:type="arc"
       sodipodi:cx="38.166523"
       sodipodi:cy="153.19574"
       sodipodi:rx="40.582397"
       sodipodi:ry="14.554218"
       sodipodi:start="1.5711513"
       sodipodi:end="3.9418844"
       sodipodi:arc-type="arc"
       sodipodi:open="true"
       d="M 38.152117,167.74996 A 40.582397,14.554218 0 0 1 0.55596081,158.66272 40.582397,14.554218 0 0 1 9.9009889,142.75222"
       inkscape:export-filename="C:\Users\kk7800\Documents\path5897.png"
       inkscape:export-xdpi="96"
       inkscape:export-ydpi="96" />
  </g>
  <g
     inkscape:label="Layer 1"
     inkscape:groupmode="layer"
     id="layer1"
     style="display:inline"
     transform="translate(-49.428488,-97.035262)">
    <path
       id="path5897"
       style="fill:#ffff00;fill-opacity:1;stroke:#000000;stroke-width:0.944882;stroke-linecap:butt;stroke-linejoin:miter;stroke-miterlimit:4;stroke-dasharray:none;stroke-opacity:1"
       inkscape:transform-center-x="-3.707953"
       inkscape:transform-center-y="-4.9152308"
       d="m 306.72656,379.09375 c -5.89448,0 -7.36827,7.7e-4 -8.83984,0.73633 -1.47158,0.73556 -2.94347,2.20877 -3.67969,3.68164 -0.73621,1.47286 -0.73633,2.94599 -0.73633,3.68164 v 7.35937 26.5 c 10e-6,6.62888 -0.001,6.62891 -1.47461,6.62891 -1.47347,0 -4.4132,-5e-5 -8.0957,0.73633 -3.68249,0.73638 -8.0987,2.20968 -11.7793,4.41797 -3.6806,2.20829 -6.62589,5.15183 -8.98242,8.83398 -2.35653,3.68215 -4.1216,8.09925 -5.59375,13.25196 -1.47214,5.1527 -2.65134,11.04176 -3.24023,16.19531 -0.5889,5.15354 -0.58789,9.57247 -0.58789,13.98828 0,4.41581 -0.001,8.83398 0.58789,13.98828 0.58915,5.1543 1.76781,11.04233 3.24023,15.45898 1.47242,4.41666 3.23979,7.36134 5.1543,10.30665 1.91451,2.9453 3.97515,5.88955 6.18359,8.09765 2.20844,2.2081 4.56417,3.68176 7.21485,5.1543 2.65067,1.47254 5.59395,2.94365 9.27539,3.67969 3.68144,0.73603 8.09874,0.73625 11.77929,0 3.68056,-0.73626 6.62385,-2.2092 9.12696,-3.68164 2.5031,-1.47245 4.56496,-2.94345 5.5957,-3.67969 1.03074,-0.73625 1.03123,-0.73638 1.76758,0.73633 l 2.94336,5.88867 c 0.73591,1.47183 0.73623,1.47308 2.7207,1.49609 1.98447,0.023 5.94909,0.0682 7.86328,0.0684 1.91419,1.8e-4 1.77458,-0.0458 1.63672,-0.0918 l -8.83398,-17.66796 -0.88282,-1.76758 0.58985,-1.91602 c 0.58968,-1.91646 1.76553,-5.73983 2.50195,-9.86328 0.73642,-4.12345 1.02959,-8.53558 1.32422,-12.95508 l 0.73633,-11.04492 c 0.14718,-2.2077 0.14847,-2.20703 1.62304,-2.20703 h 5.88477 3.24414 c 1.76958,0 5.29976,-10e-4 9.71484,-2.20899 4.41509,-2.20778 9.71236,-6.6221 12.36524,-13.2539 2.65288,-6.6318 2.65277,-15.45298 -0.29297,-22.08203 -2.94574,-6.62905 -8.83269,-11.04282 -15.05078,-13.25196 -6.21809,-2.20914 -8.68609,-2.20898 -8.68609,-2.20898 0,0 2.24355,-9.2e-4 8.57281,-2.20899 6.32926,-2.20806 12.21556,-6.62256 15.16211,-13.25195 2.94654,-6.62939 2.94818,-15.45252 0.29687,-22.08203 -2.65131,-6.62951 -7.94835,-11.04215 -12.36719,-13.25195 -4.41883,-2.2098 -7.95183,-2.21094 -14.87109,-2.21094 z m -19.65625,58.7793 c 1.8912,-0.0137 3.82383,0.26308 4.92774,0.70507 1.47187,0.58934 1.47265,1.47205 1.47265,2.35547 v 30.18555 c 0,6.62529 -3e-5,8.09653 0.73633,9.56836 0.73636,1.47183 2.20935,2.94594 3.68164,3.68164 1.4723,0.7357 3.16386,0.73633 5.66992,0.73633 h 9.5586 c 2.43758,0 2.4375,-1.4e-4 2.4375,2.22851 0,2.22866 0.001,6.62039 -0.73242,11.75586 -0.73374,5.13548 -2.19688,10.98728 -3.6836,15.44727 -1.48671,4.45999 -2.93058,7.34626 -4.26953,9.72656 -1.33895,2.3803 -2.48953,4.10672 -3.98047,5.59766 -1.49094,1.49093 -3.21417,2.64046 -6.34179,3.23633 -3.12763,0.59586 -7.43629,0.59429 -10.56836,-0.002 -3.13207,-0.59625 -4.87419,-1.75735 -6.34766,-3.23047 -1.47347,-1.47312 -2.64604,-3.23244 -3.97656,-5.59765 -1.33053,-2.36521 -2.78893,-5.28125 -4.26953,-9.72266 -1.48061,-4.44141 -2.93457,-10.25952 -3.67579,-15.44726 -0.74121,-5.18775 -0.74218,-9.53424 -0.74218,-13.99219 0,-4.45795 1.5e-4,-8.83435 0.73632,-13.98828 0.73618,-5.15394 2.20927,-11.0417 3.68165,-15.45899 1.47238,-4.41728 2.9445,-7.36309 4.26953,-9.71875 1.32503,-2.35565 2.50381,-4.1218 3.97656,-5.44726 1.47275,-1.32546 3.2375,-2.20955 5.59375,-2.50391 0.58906,-0.0736 1.2153,-0.11065 1.8457,-0.11523 z"
       transform="scale(0.26458333)"
       sodipodi:nodetypes="csssccssssssscssssssssccssccccsssscscssscsssscccsssssssscsssscsssssssssscc" />
    <path
       style="fill:#0096ff;fill-opacity:1;stroke:#000000;stroke-width:0.25;stroke-linecap:butt;stroke-linejoin:miter;stroke-miterlimit:4;stroke-dasharray:none;stroke-opacity:1"
       d="m 91.593805,119.11819 c -0.311603,-0.66227 -0.701148,-1.20763 -1.285461,-1.59729 -0.584313,-0.38966 -1.363426,-0.6234 -3.116511,-0.74032 -1.753086,-0.11691 -4.479976,-0.11691 -5.843566,-0.11691 -1.36359,0 -1.36359,0 -1.36359,1.55841 0,1.55841 0,4.67481 0,6.23296 0,1.55816 0,1.55816 1.363616,1.55816 1.363617,0 4.090508,0 5.84351,-0.11689 1.753002,-0.1169 2.532097,-0.35062 3.116366,-0.74015 0.584269,-0.38953 0.973825,-0.93491 1.285472,-1.59713 0.311647,-0.66221 0.545376,-1.44131 0.545443,-2.22037 6.7e-5,-0.77907 -0.233677,-1.55821 -0.545279,-2.22047 z"
       id="path42648"
       sodipodi:nodetypes="cccccccccccc"
       inkscape:export-filename="C:\Users\kk7800\Documents\path5897.png"
       inkscape:export-xdpi="96"
       inkscape:export-ydpi="96"
       inkscape:original-d="m 91.671587,119.00106 c -0.389339,-0.54517 -0.778886,-1.09053 -1.16869,-1.63616 -0.778912,-0.23351 -1.558022,-0.46726 -2.337382,-0.70123 -2.726768,2.3e-4 -5.453658,2.3e-4 -8.18084,0 2.35e-4,2.3e-4 2.35e-4,2.3e-4 2e-6,0 2.34e-4,3.11682 2.34e-4,6.23322 0,9.34953 2.33e-4,2.3e-4 2.33e-4,2.3e-4 -2e-6,0 2.727235,2.3e-4 5.454126,2.3e-4 8.18084,0 0.779376,-0.2335 1.55847,-0.46723 2.337382,-0.70121 0.389804,-0.54517 0.77936,-1.09055 1.16869,-1.63617 0.233977,-0.77892 0.46771,-1.55802 0.701216,-2.33739 -0.233506,-0.77888 -0.467246,-1.55802 -0.701216,-2.33737 z"
       inkscape:path-effect="#path-effect42650" />
    <path
       style="fill:#0096ff;fill-opacity:1;stroke:#000000;stroke-width:0.25;stroke-linecap:butt;stroke-linejoin:miter;stroke-miterlimit:4;stroke-dasharray:none;stroke-opacity:1"
       d="m 79.984677,104.19943 c 0,-1.56005 -2e-6,-1.56005 1.362119,-1.56005 1.36212,0 4.092218,0 5.845141,0.1169 1.752922,0.11691 2.532265,0.35071 3.116448,0.74029 0.584183,0.38957 0.973717,0.93493 1.285403,1.59738 0.311685,0.66244 0.545249,1.44098 0.545184,2.22042 -6.5e-5,0.77943 -0.233715,1.55826 -0.545332,2.2204 -0.311617,0.66215 -0.701122,1.20746 -1.28551,1.59707 -0.584388,0.38961 -1.363238,0.62326 -3.116465,0.74016 -1.753226,0.1169 -4.47981,0.1169 -5.843399,0.1169 -1.363589,0 -1.363589,0 -1.363589,-1.55815 0,-1.55815 0,-4.67127 0,-6.23132 z"
       id="path47898"
       sodipodi:nodetypes="cccccccccccc"
       inkscape:export-filename="C:\Users\kk7800\Documents\path5897.png"
       inkscape:export-xdpi="96"
       inkscape:export-ydpi="96"
       inkscape:original-d="m 79.984677,102.63938 h -2e-6 c 2.724241,2.3e-4 5.454339,2.3e-4 8.18084,0 0.779301,0.23395 1.558645,0.46775 2.337382,0.70122 0.389719,0.54551 0.779256,1.09086 1.16869,1.63618 0.234036,0.77957 0.467597,1.55811 0.701216,2.33737 -0.233619,0.77973 -0.467263,1.55856 -0.701216,2.33737 -0.389296,0.54559 -0.778806,1.0909 -1.16869,1.63619 -0.779071,0.23402 -1.557917,0.46768 -2.337382,0.70119 -2.727076,2.4e-4 -5.45366,2.4e-4 -8.18084,0 2.35e-4,2.4e-4 2.35e-4,2.4e-4 2e-6,0 2.34e-4,-3.1163 2.34e-4,-6.22942 0,-9.34952 z"
       inkscape:path-effect="#path-effect47900" />
    <path
       style="fill:#34e7ff;fill-opacity:1;stroke:#000000;stroke-width:0.25;stroke-linecap:butt;stroke-linejoin:miter;stroke-miterlimit:4;stroke-dasharray:none;stroke-opacity:1"
       d="m 99.446839,133.67701 c 0.189682,0.18968 0.568591,0.56858 0.568471,0.94749 -1.2e-4,0.37892 -0.37913,0.75792 -0.568641,0.94744 -0.189511,0.18951 -0.189511,0.18951 -0.947453,0.18951 -0.757943,0 -2.273965,0 -3.032136,0 -0.758171,0 -0.758171,0 -0.947686,0.18952 -0.189514,0.18951 -0.568525,0.56852 -0.568409,0.94766 1.16e-4,0.37914 0.379135,0.75816 0.568529,0.94755 0.189395,0.1894 0.189395,0.1894 0.758051,0.1894 0.568656,0 1.705672,0 2.274102,0 0.568429,0 0.568429,0 0.947594,0.18958 0.379164,0.18958 1.137188,0.56859 1.705659,1.1372 0.56846,0.56861 0.94747,1.32662 0.94738,2.08459 -9e-5,0.75796 -0.37911,1.516 -0.94758,2.08446 -0.568464,0.56846 -1.326494,0.94748 -1.705559,1.13701 -0.379065,0.18954 -0.379065,0.18954 -1.137008,0.18954 -0.757943,0 -2.273967,0 -3.032137,0 -0.758169,0 -0.758169,0 -0.94757,-0.18941 -0.189401,-0.1894 -0.568412,-0.56841 -0.56852,-0.94755 -1.08e-4,-0.37914 0.378898,-0.75815 0.56841,-0.94766 0.189511,-0.18951 0.189511,-0.18951 0.947681,-0.18951 0.758171,0 2.274192,0 3.032136,0 0.757943,0 0.757943,0 0.947458,-0.18952 0.189516,-0.18951 0.568525,-0.56853 0.568635,-0.94744 1.1e-4,-0.37891 -0.378896,-0.75792 -0.568523,-0.94754 -0.189627,-0.18963 -0.189627,-0.18963 -0.758055,-0.18963 -0.568429,0 -1.705445,0 -2.274102,0 -0.568657,0 -0.568657,0 -0.947549,-0.18945 -0.378891,-0.18944 -1.136736,-0.56836 -1.705471,-1.13696 -0.568735,-0.5686 -0.94758,-1.32629 -0.947671,-2.08459 -9.2e-5,-0.75831 0.378922,-1.51634 0.9474,-2.08482 0.568478,-0.56848 1.326681,-0.94758 1.705658,-1.13706 0.378976,-0.18949 0.378976,-0.18949 1.136915,-0.18949 0.757939,0 2.274013,0 3.032161,0 0.758149,0 0.758149,0 0.94783,0.18968 z"
       id="path15672"
       sodipodi:nodetypes="ccccccccccccccccccccccccccccccccccc"
       inkscape:export-filename="C:\Users\kk7800\Documents\path5897.png"
       inkscape:export-xdpi="96"
       inkscape:export-ydpi="96"
       inkscape:original-d="m 99.257157,133.48733 c 0.379363,0.37936 0.758263,0.75827 1.137063,1.13705 -0.3788,0.37927 -0.757815,0.75827 -1.137063,1.13707 2.27e-4,2.3e-4 2.27e-4,2.3e-4 10e-7,0 -1.515885,2.3e-4 -3.031907,2.3e-4 -4.548249,0 2.27e-4,2.3e-4 2.27e-4,2.3e-4 0,0 -0.378801,0.37926 -0.757814,0.75827 -1.137063,1.13707 0.379256,0.37925 0.758269,0.75827 1.137063,1.13705 2.27e-4,2.3e-4 2.27e-4,2.3e-4 0,1e-5 1.137312,2.2e-4 2.274328,2.2e-4 3.411187,0 2.26e-4,2.2e-4 2.26e-4,2.2e-4 -10e-7,-1e-5 0.758284,0.37926 1.51631,0.75827 2.274125,1.13707 0.37925,0.75829 0.75826,1.51629 1.13706,2.27413 -0.3788,0.75828 -0.75782,1.51631 -1.13706,2.27412 -0.75783,0.37925 -1.515857,0.75827 -2.274125,1.13706 2.27e-4,2.3e-4 2.27e-4,2.3e-4 10e-7,1e-5 -1.515886,2.2e-4 -3.03191,2.2e-4 -4.548249,0 2.26e-4,2.2e-4 2.26e-4,2.2e-4 -1e-6,-1e-5 -0.378801,-0.3788 -0.757813,-0.75781 -1.137061,-1.13706 0.379255,-0.37881 0.758268,-0.75781 1.137061,-1.13706 2.27e-4,2.3e-4 2.27e-4,2.3e-4 1e-6,0 1.516341,2.3e-4 3.032362,2.3e-4 4.548249,0 2.26e-4,2.3e-4 2.26e-4,2.3e-4 -10e-7,0 0.379256,-0.37881 0.758268,-0.75782 1.137062,-1.13707 -0.378801,-0.3788 -0.757813,-0.7578 -1.137062,-1.13706 2.27e-4,2.3e-4 2.27e-4,2.3e-4 10e-7,0 -1.136857,2.3e-4 -2.273873,2.3e-4 -3.411187,0 2.27e-4,2.3e-4 2.27e-4,2.3e-4 0,0 -0.757829,-0.3788 -1.515674,-0.75772 -2.274124,-1.13706 -0.378885,-0.75799 -0.757729,-1.51568 -1.137062,-2.27412 0.379333,-0.75799 0.758351,-1.51602 1.137062,-2.27414 0.758103,-0.37871 1.51631,-0.7578 2.274124,-1.13705 2.27e-4,2.2e-4 2.27e-4,2.2e-4 0,0 1.515878,2.2e-4 3.031952,2.2e-4 4.548249,0 2.26e-4,2.2e-4 2.26e-4,2.2e-4 -10e-7,0 z"
       inkscape:path-effect="#path-effect15674" />
    <path
       style="mix-blend-mode:normal;fill:none;fill-opacity:1;stroke:#000000;stroke-width:0.25;stroke-linecap:butt;stroke-linejoin:miter;stroke-miterlimit:4;stroke-dasharray:none;stroke-opacity:1"
       d="m 102.02337,143.34322 c 0.7195,-1.51474 2.16095,-4.54938 3.14645,-6.44459 0.9855,-1.89521 1.5161,-2.65321 1.78144,-3.03225 0.26533,-0.37905 0.26533,-0.37905 0.51995,-0.005 0.25461,0.37412 0.76316,1.12135 1.71167,3.01843 0.94851,1.89708 2.33296,4.93578 3.026,6.45693 0.69305,1.52115 0.69305,1.52115 0.3138,1.52115 -0.37926,0 -1.13593,0 -1.5154,0 -0.37947,0 -0.37947,0 -0.53086,-0.22708 -0.15139,-0.22708 -0.45487,-0.6823 -0.8339,-1.25084 -0.37903,-0.56854 -0.83319,-1.24977 -1.06102,-1.59152 -0.22783,-0.34175 -0.22783,-0.34175 -0.22783,-0.34175 -0.75804,0 -1.51625,0 -1.89518,0 -0.37894,0 -0.37894,0 -0.37894,0 -0.45482,0.68224 -0.90968,1.36452 -1.2887,1.93307 -0.37903,0.56854 -0.68224,1.02335 -0.83383,1.25074 -0.15159,0.22738 -0.15159,0.22738 -0.56878,0.22738 -0.4172,0 -1.24956,0 -1.66696,0 -0.41741,0 -0.41741,0 0.30209,-1.51474 z"
       id="path16526"
       sodipodi:nodetypes="ccccccccccccccccccc"
       inkscape:export-filename="C:\Users\kk7800\Documents\path5897.png"
       inkscape:export-xdpi="96"
       inkscape:export-ydpi="96"
       inkscape:original-d="m 101.30387,144.85796 c 1.43928,-3.02935 2.88071,-6.06399 4.32083,-9.09651 0.53088,-0.75785 1.06148,-1.51585 1.59189,-2.27412 2.3e-4,2.2e-4 2.3e-4,2.2e-4 0,0 0.50929,0.7482 1.01784,1.49543 1.52716,2.24392 1.38776,3.04566 2.77221,6.08435 4.15818,9.12671 2.2e-4,2.3e-4 2.2e-4,2.3e-4 0,0 -0.75851,2.3e-4 -1.51518,2.3e-4 -2.27412,0 2.2e-4,2.3e-4 2.2e-4,2.3e-4 0,0 -0.30273,-0.45419 -0.60621,-0.90941 -0.90966,-1.36447 -0.45461,-0.68202 -0.90876,-1.36326 -1.36448,-2.04672 2.4e-4,2.3e-4 0,0 0,0 0,0 -1.51625,2.3e-4 -2.27412,0 2.2e-4,2.3e-4 0,0 0,0 0,0 -0.90941,1.3647 -1.36447,2.04672 -0.303,0.45506 -0.6062,0.90988 -0.90965,1.36447 2.2e-4,2.3e-4 2.2e-4,2.3e-4 0,0 -0.83439,2.3e-4 -1.66675,2.3e-4 -2.50156,0 2.3e-4,2.2e-4 2.3e-4,2.2e-4 0,0 z"
       inkscape:path-effect="#path-effect16528" />
    <path
       style="mix-blend-mode:normal;fill:none;fill-opacity:1;fill-rule:nonzero;stroke:#000000;stroke-width:0.25;stroke-linecap:butt;stroke-linejoin:miter;stroke-miterlimit:4;stroke-dasharray:none;stroke-opacity:1"
       d="m 107.55793,139.17264 c -0.1895,0 -0.49272,0 -0.6822,0 -0.18947,0 -0.26518,0 -0.37916,0 -0.11397,0 -0.26487,0 -0.34096,-0.0759 -0.0761,-0.0759 -0.0761,-0.22747 -0.0761,-0.34092 0,-0.11345 0,-0.18943 0.1516,-0.45484 0.15159,-0.2654 0.4548,-0.72021 0.64432,-0.98555 0.18953,-0.26534 0.26533,-0.34114 0.34129,-0.341 0.0759,1.5e-4 0.15168,0.0759 0.34117,0.34122 0.18949,0.26533 0.4927,0.72015 0.64422,0.98548 0.15152,0.26533 0.15152,0.34106 0.15152,0.45477 0,0.11372 0,0.26532 -0.0757,0.34101 -0.0757,0.0757 -0.2273,0.0757 -0.34097,0.0757 -0.11366,0 -0.18955,0 -0.37906,0 z"
       id="path17479"
       sodipodi:nodetypes="cccccccccccccc"
       inkscape:export-filename="C:\Users\kk7800\Documents\path5897.png"
       inkscape:export-xdpi="96"
       inkscape:export-ydpi="96"
       inkscape:original-d="m 107.67141,139.17264 c -0.30298,2.3e-4 -0.6062,2.3e-4 -0.90965,0 -0.0755,2.3e-4 -0.15121,2.2e-4 -0.22741,0 -0.15175,2.3e-4 -0.30265,2.3e-4 -0.45482,0 2.2e-4,-0.15172 2.2e-4,-0.30333 0,-0.45483 2.2e-4,-0.0754 2.2e-4,-0.15138 0,-0.22741 0.30345,-0.45461 0.60665,-0.90942 0.90965,-1.36447 0.0761,-0.0755 0.15183,-0.15138 0.22741,-0.22741 0.0761,0.0761 0.15184,0.15182 0.22741,0.22741 0.30346,0.45505 0.60666,0.90987 0.90965,1.36447 2.3e-4,0.0761 2.3e-4,0.15183 0,0.22741 2.3e-4,0.15185 2.3e-4,0.30345 0,0.45483 -0.15138,2.3e-4 -0.30299,2.3e-4 -0.45482,0 -0.0755,2.2e-4 -0.15139,2.3e-4 -0.22742,0 z"
       inkscape:path-effect="#path-effect17481" />
    <path
       style="fill:#34e7ff;fill-opacity:1;stroke:#000000;stroke-width:0.25;stroke-linecap:butt;stroke-linejoin:miter;stroke-miterlimit:4;stroke-dasharray:none;stroke-opacity:1"
       d="m 115.13822,143.94843 c 0.18962,0.22753 0.56863,0.68235 0.94754,0.68224 0.37891,-1.1e-4 0.75793,-0.45494 0.94742,-0.71601 0.1895,-0.26107 0.18948,-0.28047 0.25446,-2.55462 0.065,-2.27415 0.10183,-3.53047 0.13217,-4.56453 0.0303,-1.03406 0.0303,-1.03406 0.56122,-1.03406 0.53087,0 1.59163,0 2.65289,0 0,0 0,0 0.18952,-0.18952 0.18951,-0.18951 0.56851,-0.56851 0.56863,-0.94743 1.1e-4,-0.37891 -0.3789,-0.75792 -0.56852,-0.94754 -0.18963,-0.18963 -0.18963,-0.18963 -0.18963,-0.18963 0,0 -9.09649,0 -9.09649,0 0,0 0,0 -0.18953,0.18953 -0.18953,0.18952 -0.56851,0.56851 -0.5684,0.94764 1.2e-4,0.37914 0.3791,0.75813 0.56852,0.94754 0.18941,0.18941 0.18941,0.18941 0.76436,0.18937 0.57495,-3e-5 1.72456,-1.1e-4 2.29929,-1.4e-4 0.57473,-4e-5 0.57473,-4e-5 0.56843,1.32671 -0.006,1.32675 -0.0189,3.97985 -0.0252,5.30638 -0.006,1.32653 -0.006,1.32653 -0.006,1.32653 0,0 1e-5,0 0.18962,0.22754 z"
       id="path19553"
       sodipodi:nodetypes="cccccccccccccccccccc"
       inkscape:export-filename="C:\Users\kk7800\Documents\path5897.png"
       inkscape:export-xdpi="96"
       inkscape:export-ydpi="96"
       inkscape:original-d="m 114.94861,143.72089 c 0.37925,0.45505 0.75827,0.90987 1.13706,1.36447 0.37925,-0.4546 0.75827,-0.90942 1.13706,-1.36447 1.9e-4,-0.0673 1.6e-4,-0.0867 -1.6e-4,-0.20284 0.13027,-4.43215 0.16713,-5.68847 0.22758,-7.7566 2.2e-4,2.3e-4 2.2e-4,2.3e-4 0,0 1.06175,2.3e-4 3.18377,0 3.18377,0 0,0 2.3e-4,2.3e-4 0,0 0.37926,-0.3788 0.75826,-0.7578 1.13706,-1.13706 -0.3788,-0.3788 -0.75781,-0.75781 -1.13706,-1.13706 2.3e-4,2.2e-4 2.3e-4,2.2e-4 0,0 h -9.09649 c 2.2e-4,2.2e-4 2.2e-4,2.2e-4 0,0 -0.37883,0.37928 -0.75782,0.75826 -1.13707,1.13706 0.37925,0.37926 0.75824,0.75824 1.13707,1.13706 2.2e-4,2.3e-4 2.2e-4,2.3e-4 0,0 1.1499,1.5e-4 2.29951,8e-5 3.44897,-2.2e-4 2.3e-4,2.3e-4 2.3e-4,2.3e-4 0,0 -0.0124,2.6535 -0.025,5.3066 -0.0378,7.95966 2.4e-4,2.2e-4 2.4e-4,2.2e-4 0,0 z"
       inkscape:path-effect="#path-effect19555" />
  </g>
  <g
     inkscape:groupmode="layer"
     id="layer3"
     inkscape:label="Layer 3"
     transform="translate(-49.428488,-97.035262)" />
</svg>
